<?xml version="1.0" standalone="no"?><svg xmlns="http://www.w3.org/2000/svg" viewBox="0 0 1440 320"><path fill="#000b76" fill-opacity="1" d="M0,192L26.7,176C53.3,160,107,128,160,122.7C213.3,117,267,139,320,138.7C373.3,139,427,117,480,96C533.3,75,587,53,640,74.7C693.3,96,747,160,800,170.7C853.3,181,907,139,960,128C1013.3,117,1067,139,1120,128C1173.3,117,1227,75,1280,58.7C1333.3,43,1387,53,1413,58.7L1440,64L1440,320L1413.3,320C1386.7,320,1333,320,1280,320C1226.7,320,1173,320,1120,320C1066.7,320,1013,320,960,320C906.7,320,853,320,800,320C746.7,320,693,320,640,320C586.7,320,533,320,480,320C426.7,320,373,320,320,320C266.7,320,213,320,160,320C106.7,320,53,320,27,320L0,320Z"></path></svg>